USFL
nRows=212
nColumns=2
inDegrees=yes
endheader
time	tib_ant_r	
4.42411	 40.934738	
4.45738	 40.747472	
4.49064	 40.719046	
4.5239	 40.659505	
4.55717	 40.375433	
4.59043	 40.266788	
4.6237	 39.676630	
4.65696	 39.423907	
4.69022	 39.044684	
4.72349	 38.836004	
4.75675	 38.574639	
4.79002	 38.199947	
4.82328	 37.537099	
4.85654	 37.274620	
4.88981	 36.933658	
4.92307	 36.765438	
4.95634	 36.546859	
4.9896	 36.180779	
5.02286	 36.016637	
5.05613	 35.810700	
5.08939	 35.625362	
5.12266	 35.493937	
5.15592	 35.232049	
5.18918	 34.935553	
5.22245	 34.790153	
5.25571	 34.672702	
5.28898	 34.644401	
5.32224	 34.566073	
5.3555	 34.413499	
5.38877	 34.372133	
5.42203	 34.252278	
5.4553	 34.183229	
5.48856	 34.162832	
5.52182	 34.117681	
5.55509	 34.152085	
5.58835	 34.060833	
5.62162	 33.996342	
5.65488	 33.957456	
5.68814	 33.908375	
5.72141	 33.839086	
5.75467	 33.854530	
5.78794	 33.839398	
5.8212	 33.804726	
5.85446	 33.780342	
5.88773	 33.757730	
5.92099	 33.614142	
5.95426	 33.590904	
5.98752	 33.500303	
6.02078	 33.451997	
6.05405	 33.447679	
6.08731	 33.402678	
6.12058	 33.382121	
6.15384	 33.405171	
6.1871	 33.363221	
6.22037	 33.340220	
6.25363	 33.373841	
6.2869	 33.342147	
6.32016	 33.400174	
6.35342	 33.445556	
6.38669	 33.394554	
6.41995	 33.443814	
6.45322	 33.411895	
6.48648	 33.343213	
6.51974	 33.362554	
6.55301	 33.380440	
6.58627	 33.337105	
6.61954	 33.365722	
6.6528	 33.337151	
6.68606	 33.375912	
6.71933	 33.353335	
6.75259	 33.361499	
6.78586	 33.359269	
6.81912	 33.342377	
6.85238	 33.431364	
6.88565	 33.399016	
6.91891	 33.320595	
6.95218	 33.266737	
6.98544	 33.268414	
7.0187	 33.277874	
7.05197	 33.323483	
7.08523	 33.438610	
7.1185	 33.230397	
7.15176	 33.104927	
7.18502	 33.531470	
7.21829	 33.477203	
7.25155	 29.157214	
7.28482	 29.418684	
7.31808	 28.684186	
7.35134	 28.842275	
7.38461	 28.939046	
7.41787	 29.106907	
7.45114	 29.147694	
7.4844	 29.190540	
7.51766	 29.322709	
7.55093	 29.462631	
7.58419	 29.539830	
7.61746	 29.681027	
7.65072	 29.741332	
7.68398	 29.721542	
7.71725	 29.799613	
7.75051	 29.951552	
7.78378	 30.120696	
7.81704	 30.260246	
7.8503	 30.158358	
7.88357	 30.336474	
7.91683	 30.395794	
7.9501	 30.234395	
7.98336	 30.536460	
8.01662	 30.712186	
8.04989	 30.657957	
8.08315	 30.849903	
8.11642	 30.908214	
8.14968	 30.849682	
8.18294	 30.752966	
8.21621	 30.750938	
8.24947	 30.811217	
8.28274	 30.826665	
8.316	 30.783008	
8.34926	 30.909905	
8.38253	 30.941431	
8.41579	 30.913957	
8.44906	 30.894138	
8.48232	 30.876567	
8.51558	 30.864869	
8.54885	 30.871661	
8.58211	 30.872329	
8.61538	 30.889876	
8.64864	 30.882661	
8.6819	 30.915751	
8.71517	 30.902788	
8.74843	 30.888330	
8.7817	 30.892915	
8.81496	 30.798141	
8.84822	 30.764334	
8.88149	 30.760624	
8.91475	 30.776086	
8.94802	 30.808315	
8.98128	 30.860682	
9.01454	 30.843978	
9.04781	 30.842510	
9.08107	 30.816397	
9.11434	 30.815196	
9.1476	 30.856470	
9.18086	 30.865459	
9.21413	 30.863526	
9.24739	 30.778057	
9.28066	 30.742234	
9.31392	 30.729807	
9.34718	 30.700491	
9.38045	 30.707327	
9.41371	 30.710857	
9.44698	 30.690954	
9.48024	 30.625939	
9.5135	 30.602247	
9.54677	 30.622775	
9.58003	 30.639484	
9.6133	 30.644239	
9.64656	 30.639366	
9.67982	 30.683460	
9.71309	 30.689196	
9.74635	 30.728309	
9.77962	 30.756612	
9.81288	 30.810078	
9.84614	 30.905651	
9.87941	 30.903807	
9.91267	 30.898176	
9.94594	 30.915026	
9.9792	 30.892170	
10.0125	 30.875519	
10.0457	 30.864994	
10.079	 30.761194	
10.1123	 30.771278	
10.1455	 30.871155	
10.1788	 30.793905	
10.212	 30.711321	
10.2453	 30.680364	
10.2786	 30.625691	
10.3118	 30.598164	
10.3451	 30.617005	
10.3784	 30.715628	
10.4116	 30.738617	
10.4449	 30.854598	
10.4782	 31.078098	
10.5114	 31.197251	
10.5447	 31.262780	
10.578	 31.344114	
10.6112	 31.466088	
10.6445	 31.422918	
10.6777	 31.570384	
10.711	 31.629055	
10.7443	 31.530253	
10.7775	 31.586102	
10.8108	 31.510982	
10.8441	 31.465552	
10.8773	 31.413991	
10.9106	 31.336567	
10.9439	 31.349699	
10.9771	 31.394110	
11.0104	 31.301195	
11.0436	 31.324830	
11.0769	 31.344778	
11.1102	 31.299557	
11.1434	 31.387189	
11.1767	 31.354361	
11.21	 31.379767	
11.2432	 31.442846	
11.2765	 31.372422	
11.3098	 31.361828	
11.343	 31.368344	
11.3763	 31.331412	
11.4096	 31.331317	
11.4428	 31.339111	
